<?xml version="1.0" standalone="no"?>
<!DOCTYPE svg PUBLIC "-//W3C//DTD SVG 20010904//EN"
 "http://www.w3.org/TR/2001/REC-SVG-20010904/DTD/svg10.dtd">
<svg version="1.0" xmlns="http://www.w3.org/2000/svg"
 width="260.000000pt" height="260.000000pt" viewBox="0 0 260.000000 260.000000"
 preserveAspectRatio="xMidYMid meet">
<metadata>
Created by potrace 1.14, written by Peter Selinger 2001-2017
</metadata>
<g transform="translate(0.000000,260.000000) scale(0.100000,-0.100000)"
fill="#000000" stroke="none">
<path d="M1653 2564 c-34 -7 -108 -31 -163 -53 -61 -25 -125 -43 -161 -46 -69
-6 -142 -29 -183 -58 -39 -27 -79 -118 -80 -181 -1 -40 -5 -52 -19 -54 -9 -2
-17 -8 -17 -12 0 -6 11 -6 25 0 16 6 25 6 25 0 0 -22 69 -4 136 36 39 24 89
50 112 59 22 9 48 28 57 41 26 40 210 122 314 139 131 22 227 -9 285 -93 106
-154 58 -313 -159 -528 -51 -50 -111 -105 -133 -123 l-41 -32 -40 86 c-43 93
-149 275 -159 275 -10 1 -682 1 -709 1 -15 -1 -33 -19 -61 -64 -159 -252 -264
-564 -256 -762 3 -73 5 -84 23 -150 40 -145 197 -293 369 -348 117 -38 134
-41 287 -51 33 -2 70 -7 82 -9 24 -6 114 -14 258 -22 105 -6 161 -21 146 -38
-11 -14 -29 -23 -201 -105 -164 -79 -225 -139 -235 -230 -17 -155 146 -258
328 -208 84 23 164 94 90 79 -52 -9 -168 -10 -200 0 -89 27 -115 98 -57 158
16 17 72 51 124 76 52 25 123 59 157 75 68 33 132 95 134 131 5 75 -18 121
-76 154 -35 19 -126 40 -162 36 -19 -1 -16 2 25 29 214 143 282 371 202 678
l-20 75 23 18 c161 131 290 263 356 363 129 196 121 404 -21 555 -97 104 -233
139 -405 103z m-475 -224 c-12 -11 -26 -19 -30 -20 -17 0 -7 20 19 40 34 27
45 8 11 -20z m240 -465 c29 -45 127 -241 136 -270 5 -17 -11 -33 -86 -90 -312
-238 -461 -388 -510 -517 -22 -58 -23 -146 -4 -193 18 -41 14 -42 -65 -19
-122 36 -238 116 -294 205 -81 126 -80 304 3 544 38 111 163 357 188 370 12 6
134 10 314 9 l294 -1 24 -38z m216 -545 c38 -236 -37 -396 -235 -499 -105 -54
-175 -69 -236 -50 -62 19 -88 56 -87 119 4 106 122 237 424 469 120 92 112 94
134 -39z"/>
<path d="M1057 2136 c-4 -10 -1 -13 9 -9 7 3 14 9 14 14 0 14 -17 10 -23 -5z"/>
</g>
</svg>
